<svg width="24" height="30" viewBox="0 0 24 30" fill="none" xmlns="http://www.w3.org/2000/svg">
<path d="M5.62032 19.1612C5.62032 19.3239 5.7345 19.5256 5.87353 19.6096L11.6434 23.0888C11.7824 23.1728 12.0108 23.1728 12.1498 23.0888L17.9196 19.6096C18.0593 19.5256 18.1728 19.3239 18.1728 19.1612V18.3495C18.1728 18.1868 18.0397 18.0537 17.877 18.0537H14.9191C14.7564 18.0537 14.5091 18.1223 14.3695 18.2057L12.1492 19.5392C12.0096 19.6232 11.7818 19.6232 11.6422 19.5392L9.42193 18.2057C9.28231 18.1217 9.16813 17.9206 9.16813 17.7579V11.1918C9.16813 11.0291 9.29651 10.8599 9.45269 10.8155L11.6108 10.2056C11.7676 10.1612 12.0238 10.1612 12.18 10.2056L14.3375 10.8155C14.4943 10.8599 14.7552 10.896 14.9179 10.896H17.8759C18.0386 10.896 18.1717 10.7628 18.1717 10.6002V8.64552C18.1717 8.48283 18.0439 8.31363 17.8871 8.26926L12.18 6.65657C12.0232 6.6122 11.767 6.6122 11.6108 6.65657L5.9037 8.26926C5.74693 8.31363 5.61914 8.48283 5.61914 8.64552V19.1612H5.62032Z" fill="#0037FF"/>
<path d="M11.4918 29.5598C11.7148 29.6941 12.0792 29.6941 12.3023 29.5598L23.3882 22.8748C23.6113 22.7405 23.7935 22.4174 23.7935 22.1571V13.1933C23.7935 12.9329 23.5805 12.72 23.3202 12.72H12.3703C12.11 12.72 11.897 12.9329 11.897 13.1933V15.7963C11.897 16.0566 12.11 16.2696 12.3703 16.2696H19.7712C20.0315 16.2696 20.2445 16.4825 20.2445 16.7428V20.1528C20.2445 20.4131 20.0623 20.7361 19.8392 20.8704L12.3029 25.4151C12.0798 25.5494 11.7154 25.5494 11.4924 25.4151L3.95542 20.8704C3.73239 20.7361 3.55018 20.4131 3.55018 20.1528V7.25657C3.55018 6.99627 3.75487 6.72531 4.00571 6.65432L11.4421 4.55356C11.6923 4.48257 12.1023 4.48257 12.3532 4.55356L19.7895 6.65432C20.0398 6.72531 20.2451 6.99627 20.2451 7.25657V10.4228C20.2451 10.6831 20.458 10.8961 20.7183 10.8961H23.3214C23.5817 10.8961 23.7947 10.6831 23.7947 10.4228V4.70087C23.7947 4.44056 23.59 4.16961 23.3391 4.09921L12.3526 1.00397C12.1023 0.933572 11.6923 0.933572 11.4415 1.00397L0.45553 4.09921C0.204693 4.16961 0 4.44056 0 4.70087V22.1577C0 22.418 0.182212 22.741 0.405244 22.8753L11.4912 29.5604L11.4918 29.5598Z" fill="#080736"/>
</svg>
