<svg width="144" height="28" viewBox="0 0 144 28" fill="none" xmlns="http://www.w3.org/2000/svg">
<g clip-path="url(#clip0_4098_12051)">
<path d="M37.4562 21.4109C36.5101 21.5936 35.6317 21.7082 33.7169 21.7082C30.9462 21.7082 27.7705 20.1984 27.7705 14.6393V11.4593C27.7705 5.85435 30.9462 4.39038 33.7169 4.39038C35.1358 4.39038 36.5101 4.59608 37.5014 4.75652C37.7039 4.77944 37.8619 4.84819 37.8619 5.0539V6.22049C37.8619 6.35801 37.8167 6.47203 37.5916 6.47203H37.5239C36.7132 6.40327 35.0461 6.26633 33.7395 6.26633C31.5318 6.26633 29.8201 7.57044 29.8201 11.4593V14.6393C29.8201 18.4829 31.5318 19.8323 33.7395 19.8323C35.0235 19.8323 36.6449 19.7177 37.4562 19.6489H37.5465C37.7942 19.6489 37.907 19.7635 37.907 20.0151V20.953C37.907 21.2275 37.7045 21.365 37.4562 21.4109Z" fill="#080736"/>
<path d="M42.029 21.5483H40.8578C40.6327 21.5483 40.4521 21.3426 40.4521 21.0911V4.77938C40.4521 4.55076 40.6096 4.34448 40.8578 4.34448H42.029C42.2541 4.34448 42.4346 4.52726 42.4346 4.77938V21.0905C42.4346 21.3191 42.2772 21.5477 42.029 21.5477V21.5483Z" fill="#080736"/>
<path d="M47.5467 6.95268H46.398C46.1504 6.95268 45.9473 6.74698 45.9473 6.49544V4.66533C45.9473 4.41379 46.1498 4.20752 46.398 4.20752H47.5467C47.7944 4.20752 47.9975 4.41322 47.9975 4.66533V6.49544C47.9975 6.74698 47.7949 6.95268 47.5467 6.95268ZM47.5016 21.5483H46.4206C46.1729 21.5483 45.9698 21.3426 45.9698 21.0911V9.42339C45.9698 9.17185 46.1724 8.96558 46.4206 8.96558H47.5016C47.7492 8.96558 47.9523 9.17128 47.9523 9.42339V21.0905C47.9523 21.342 47.7498 21.5477 47.5016 21.5477V21.5483Z" fill="#080736"/>
<path d="M58.4944 21.4566C57.7508 21.5935 56.7375 21.7081 55.6786 21.7081C52.6151 21.7081 50.8809 19.5119 50.8809 16.149V14.3648C50.8809 11.0019 52.5926 8.80566 55.6786 8.80566C56.715 8.80566 57.7508 8.92026 58.4944 9.0572C58.8549 9.12596 58.9446 9.23999 58.9446 9.56028V10.3837C58.9446 10.6123 58.7646 10.7269 58.5615 10.7269H58.4712C57.48 10.6123 56.7821 10.567 55.678 10.567C53.8761 10.567 52.8622 11.7794 52.8622 14.3648V16.149C52.8622 18.7114 53.8535 19.9468 55.678 19.9468C56.7815 19.9468 57.48 19.9009 58.4712 19.7869H58.5615C58.764 19.7869 58.9446 19.9015 58.9446 20.1301V20.9535C58.9446 21.2509 58.8543 21.3884 58.4944 21.4571V21.4566Z" fill="#080736"/>
<path d="M70.0721 21.5483H68.4501C68.2025 21.5483 68.1122 21.4796 67.9322 21.2509L63.4499 15.6231V21.0905C63.4499 21.342 63.2473 21.5477 62.9991 21.5477H61.9176C61.6699 21.5477 61.4668 21.342 61.4668 21.0905V4.8023C61.4668 4.55076 61.6693 4.34448 61.9176 4.34448H62.9991C63.2468 4.34448 63.4499 4.55018 63.4499 4.8023V14.319L67.9548 9.17187C68.0902 9.01201 68.1799 8.96617 68.4056 8.96617H69.9824C70.2075 8.96617 70.3204 9.08077 70.3204 9.21771C70.3204 9.30939 70.2752 9.40049 70.2075 9.46925L65.2518 14.9137L70.2527 21.0447C70.2978 21.0905 70.3204 21.1816 70.3204 21.2504C70.3204 21.4102 70.2301 21.5477 70.0727 21.5477L70.0721 21.5483Z" fill="#080736"/>
<path d="M83.2949 21.3425C82.1688 21.5711 80.7047 21.7315 78.3843 21.7315C76.0639 21.7315 72.3477 20.1071 72.3477 14.7085V11.4144C72.3477 5.99282 75.7716 4.36841 78.452 4.36841C80.6145 4.36841 82.5518 4.64287 83.2949 4.78038C83.5877 4.84914 83.7231 4.96317 83.7231 5.26054V6.79328C83.7231 7.11357 83.6328 7.27344 83.2729 7.27344H83.2052C82.1688 7.18176 80.6145 7.09065 78.4526 7.09065C76.9434 7.09065 75.5019 8.16614 75.5019 11.4144V14.7085C75.5019 17.9573 77.0562 19.0093 78.3854 19.0093C79.2187 19.0093 79.9172 18.9864 80.6156 18.9405V13.107C80.6156 12.8554 80.7961 12.6497 81.0438 12.6497H83.274C83.5217 12.6497 83.7242 12.8554 83.7242 13.107V20.7936C83.7242 21.0909 83.5894 21.2737 83.296 21.3425H83.2949Z" fill="#080736"/>
<path d="M93.1839 21.7312C89.5574 21.7312 86.9893 20.1297 86.9893 15.2571V4.98519C86.9893 4.73365 87.1918 4.55029 87.44 4.55029H89.6702C89.9179 4.55029 90.121 4.73307 90.121 4.98519V15.2571C90.121 17.8653 90.7517 19.1006 93.1844 19.1006C95.6171 19.1006 96.2479 17.8653 96.2479 15.2571V4.98519C96.2479 4.73365 96.4504 4.55029 96.6981 4.55029H98.9283C99.176 4.55029 99.3785 4.73307 99.3785 4.98519V15.2571C99.3785 20.1297 96.8104 21.7312 93.1839 21.7312Z" fill="#080736"/>
<path d="M114.673 21.5483H112.285C112.083 21.5483 111.902 21.3656 111.857 21.1593L110.82 16.8126H105.64L104.603 21.1593C104.558 21.365 104.378 21.5483 104.175 21.5483H101.787C101.562 21.5483 101.382 21.3885 101.382 21.1593C101.382 21.1364 101.404 21.0905 101.404 21.0447L105.099 6.70062C105.639 4.57313 107.261 4.36743 108.23 4.36743C109.198 4.36743 110.82 4.57313 111.361 6.70062L115.055 21.0447C115.055 21.0905 115.078 21.1364 115.078 21.1593C115.078 21.3879 114.898 21.5483 114.672 21.5483H114.673ZM108.591 7.41055C108.523 7.13609 108.455 7.04441 108.23 7.04441C108.005 7.04441 107.938 7.13609 107.87 7.41055L106.248 14.205H110.212L108.59 7.41055H108.591Z" fill="#080736"/>
<path d="M129.088 21.5483H126.34C126.092 21.5483 126.002 21.3197 125.89 21.0911L122.646 14.9831H122.331C121.745 14.9831 120.844 14.9143 120.326 14.8914V21.0911C120.326 21.3426 120.146 21.5483 119.898 21.5483H117.646C117.398 21.5483 117.195 21.3426 117.195 21.0911V5.35124C117.195 4.894 117.466 4.73357 117.916 4.66481C119.088 4.48203 120.687 4.36743 122.332 4.36743C125.801 4.36743 128.819 5.6257 128.819 9.53746V9.74316C128.819 12.168 127.625 13.6778 125.778 14.4101L129.314 21.09C129.359 21.1587 129.359 21.2269 129.359 21.2727C129.359 21.4326 129.269 21.5472 129.089 21.5472L129.088 21.5483ZM125.709 9.53804C125.709 7.82252 124.583 7.09025 122.33 7.09025C121.858 7.09025 120.731 7.13609 120.326 7.18193V12.329C120.686 12.352 121.948 12.3978 122.33 12.3978C124.65 12.3978 125.709 11.7572 125.709 9.74431V9.53861V9.53804Z" fill="#080736"/>
<path d="M136.927 21.7311C135.328 21.7311 133.165 21.5713 132.49 21.4567C132.107 21.3879 131.904 21.2051 131.904 20.7473V5.35124C131.904 4.894 132.107 4.71065 132.49 4.64189C133.166 4.52729 135.328 4.36743 136.927 4.36743C141.432 4.36743 144 6.83814 144 11.3676V14.7304C144 19.2599 141.432 21.7306 136.927 21.7306V21.7311ZM140.892 11.3676C140.892 7.93597 139.18 7.04384 136.927 7.04384C136.094 7.04384 135.508 7.08968 135.035 7.1126V18.986C135.508 19.0089 136.093 19.0547 136.927 19.0547C139.18 19.0547 140.892 18.1626 140.892 14.731V11.3681V11.3676Z" fill="#080736"/>
<path d="M5.35953 17.6378C5.35953 17.7953 5.46841 17.9907 5.60099 18.0721L11.1034 21.4418C11.2359 21.5232 11.4537 21.5232 11.5863 21.4418L17.0887 18.0721C17.2218 17.9907 17.3301 17.7953 17.3301 17.6378V16.8516C17.3301 16.6941 17.2032 16.5651 17.0481 16.5651H14.2272C14.072 16.5651 13.8362 16.6316 13.7031 16.7124L11.5857 18.0039C11.4526 18.0853 11.2354 18.0853 11.1022 18.0039L8.9849 16.7124C8.85175 16.631 8.74287 16.4362 8.74287 16.2787V9.91911C8.74287 9.76154 8.8653 9.59766 9.01424 9.55469L11.0723 8.96394C11.2218 8.92097 11.4661 8.92097 11.6151 8.96394L13.6726 9.55469C13.8221 9.59766 14.0709 9.63262 14.2261 9.63262H17.0469C17.2021 9.63262 17.329 9.5037 17.329 9.34612V7.45299C17.329 7.29542 17.2072 7.13154 17.0576 7.08857L11.6151 5.52662C11.4656 5.48364 11.2213 5.48364 11.0723 5.52662L5.62977 7.08857C5.48026 7.13154 5.3584 7.29542 5.3584 7.45299V17.6378H5.35953Z" fill="#0037FF"/>
<path d="M10.9591 27.7092C11.1717 27.8393 11.5193 27.8393 11.732 27.7092L22.304 21.2345C22.5167 21.1044 22.6905 20.7916 22.6905 20.5395V11.8576C22.6905 11.6055 22.4874 11.3992 22.2391 11.3992H11.7969C11.5486 11.3992 11.3455 11.6055 11.3455 11.8576V14.3788C11.3455 14.6309 11.5486 14.8371 11.7969 14.8371H18.8547C19.1029 14.8371 19.306 15.0434 19.306 15.2955V18.5982C19.306 18.8503 19.1322 19.1632 18.9195 19.2932L11.7325 23.6949C11.5198 23.825 11.1723 23.825 10.9596 23.6949L3.77206 19.2932C3.55937 19.1632 3.3856 18.8503 3.3856 18.5982V6.10774C3.3856 5.85562 3.5808 5.5932 3.82001 5.52444L10.9117 3.48977C11.1503 3.42102 11.5413 3.42102 11.7805 3.48977L18.8721 5.52444C19.1108 5.5932 19.3066 5.85562 19.3066 6.10774V9.17434C19.3066 9.42646 19.5097 9.63273 19.7579 9.63273H22.2402C22.4885 9.63273 22.6916 9.42646 22.6916 9.17434V3.63245C22.6916 3.38033 22.4964 3.11791 22.2572 3.04972L11.7799 0.0518712C11.5413 -0.0163138 11.1503 -0.0163138 10.9111 0.0518712L0.434413 3.04972C0.195204 3.11791 0 3.38033 0 3.63245V20.54C0 20.7922 0.173765 21.105 0.386458 21.2351L10.9585 27.7098L10.9591 27.7092Z" fill="#080736"/>
</g>
<defs>
<clipPath id="clip0_4098_12051">
<rect width="144" height="27.8069" fill="white"/>
</clipPath>
</defs>
</svg>
