<svg width="136" height="39" viewBox="0 0 136 39" fill="none" xmlns="http://www.w3.org/2000/svg">
<mask id="mask0_6316_30614" style="mask-type:luminance" maskUnits="userSpaceOnUse" x="8" y="8" width="120" height="23">
<path d="M128 8H8V30.8161H128V8Z" fill="white"/>
</mask>
<g mask="url(#mask0_6316_30614)">
<path d="M39.214 25.5679C38.4253 25.7179 37.6932 25.8119 36.0979 25.8119C33.7889 25.8119 31.1426 24.5731 31.1426 20.0118V17.4025C31.1426 12.8035 33.7889 11.6023 36.0979 11.6023C37.28 11.6023 38.4253 11.7711 39.2513 11.9027C39.4202 11.9216 39.5518 11.978 39.5518 12.1467V13.1039C39.5518 13.2168 39.514 13.3104 39.3268 13.3104H39.2702C38.5947 13.2539 37.2055 13.1415 36.1163 13.1415C34.2766 13.1415 32.8506 14.2116 32.8506 17.4025V20.0118C32.8506 23.1655 34.2766 24.2727 36.1163 24.2727C37.1866 24.2727 38.5376 24.1786 39.214 24.1223H39.289C39.4956 24.1223 39.5895 24.2163 39.5895 24.4227V25.1923C39.5895 25.4175 39.4206 25.5303 39.214 25.5679Z" fill="white"/>
<path d="M43.0246 25.6808H42.0487C41.8609 25.6808 41.7104 25.512 41.7104 25.3056V11.9216C41.7104 11.734 41.8416 11.5647 42.0487 11.5647H43.0246C43.2119 11.5647 43.3624 11.7146 43.3624 11.9216V25.3051C43.3624 25.4927 43.2313 25.6808 43.0246 25.6808Z" fill="white"/>
<path d="M47.6226 13.7048H46.6655C46.4594 13.7048 46.29 13.536 46.29 13.3297V11.828C46.29 11.6216 46.4589 11.4524 46.6655 11.4524H47.6226C47.8292 11.4524 47.9986 11.6212 47.9986 11.828V13.3297C47.9986 13.536 47.8297 13.7048 47.6226 13.7048ZM47.5854 25.6808H46.6844C46.4778 25.6808 46.3089 25.512 46.3089 25.3056V15.7321C46.3089 15.5257 46.4773 15.3565 46.6844 15.3565H47.5854C47.7915 15.3565 47.9608 15.5252 47.9608 15.7321V25.3052C47.9608 25.5116 47.792 25.6808 47.5854 25.6808Z" fill="white"/>
<path d="M56.7459 25.6057C56.126 25.718 55.2817 25.8121 54.3991 25.8121C51.8462 25.8121 50.4009 24.01 50.4009 21.2507V19.7867C50.4009 17.0274 51.8273 15.2253 54.3991 15.2253C55.2628 15.2253 56.126 15.3194 56.7459 15.4318C57.0459 15.4882 57.1209 15.5817 57.1209 15.8446V16.5201C57.1209 16.7077 56.9709 16.8017 56.8015 16.8017H56.7265C55.9006 16.7077 55.3189 16.6706 54.3986 16.6706C52.8972 16.6706 52.0523 17.6654 52.0523 19.7867V21.2507C52.0523 23.3532 52.8783 24.3668 54.3986 24.3668C55.3185 24.3668 55.9006 24.3292 56.7265 24.2356H56.8015C56.9704 24.2356 57.1209 24.3297 57.1209 24.5173V25.1929C57.1209 25.4369 57.0454 25.5493 56.7459 25.6057Z" fill="white"/>
<path d="M66.3941 25.6808H65.0422C64.836 25.6808 64.7606 25.6243 64.6106 25.4367L60.8756 20.819V25.3051C60.8756 25.5115 60.7067 25.6803 60.4996 25.6803H59.5986C59.392 25.6803 59.2227 25.5115 59.2227 25.3051V11.9403C59.2227 11.734 59.3915 11.5647 59.5986 11.5647H60.4996C60.7062 11.5647 60.8756 11.7335 60.8756 11.9403V19.7489L64.6294 15.5257C64.7422 15.3945 64.8172 15.3569 65.0049 15.3569H66.3191C66.5068 15.3569 66.6007 15.4509 66.6007 15.5633C66.6007 15.6385 66.563 15.7133 66.5068 15.7697L62.377 20.237L66.5446 25.2675C66.5819 25.3051 66.6007 25.3799 66.6007 25.4363C66.6007 25.5674 66.5257 25.6803 66.3946 25.6803L66.3941 25.6808Z" fill="white"/>
<path d="M77.4129 25.512C76.4742 25.6996 75.2544 25.8312 73.3208 25.8312C71.3868 25.8312 68.29 24.4984 68.29 20.0687V17.3658C68.29 12.9173 71.1434 11.5845 73.377 11.5845C75.1789 11.5845 76.7936 11.8097 77.4129 11.9225C77.6568 11.9789 77.7696 12.0725 77.7696 12.3165V13.5741C77.7696 13.8369 77.6946 13.9681 77.3946 13.9681H77.3379C76.4742 13.8929 75.1789 13.8181 73.3775 13.8181C72.1199 13.8181 70.9189 14.7006 70.9189 17.3658V20.0687C70.9189 22.7344 72.2137 23.5976 73.3218 23.5976C74.0162 23.5976 74.5978 23.5788 75.1799 23.5412V18.7546C75.1799 18.5482 75.3304 18.3795 75.537 18.3795H77.3955C77.6017 18.3795 77.7705 18.5482 77.7705 18.7546V25.0616C77.7705 25.3056 77.6583 25.4556 77.4139 25.512H77.4129Z" fill="white"/>
<path d="M85.6531 25.8307C82.6314 25.8307 80.4912 24.5166 80.4912 20.5185V12.0903C80.4912 11.8838 80.6601 11.7334 80.8667 11.7334H82.7252C82.9319 11.7334 83.1007 11.8834 83.1007 12.0903V20.5185C83.1007 22.6586 83.6267 23.6722 85.6536 23.6722C87.681 23.6722 88.2065 22.6586 88.2065 20.5185V12.0903C88.2065 11.8838 88.3754 11.7334 88.582 11.7334H90.4406C90.6467 11.7334 90.8156 11.8834 90.8156 12.0903V20.5185C90.8156 24.5166 88.6754 25.8307 85.6531 25.8307Z" fill="white"/>
<path d="M103.561 25.6807H101.571C101.402 25.6807 101.252 25.5308 101.214 25.3615L100.35 21.795H96.0331L95.1694 25.3615C95.1316 25.5303 94.9816 25.6807 94.8128 25.6807H92.8231C92.6353 25.6807 92.4849 25.5496 92.4849 25.3615C92.4849 25.3427 92.5037 25.3051 92.5037 25.2675L95.5821 13.4979C96.0326 11.7523 97.3841 11.5835 98.1916 11.5835C98.9987 11.5835 100.35 11.7523 100.801 13.4979L103.879 25.2675C103.879 25.3051 103.898 25.3427 103.898 25.3615C103.898 25.5491 103.748 25.6807 103.56 25.6807H103.561ZM98.4926 14.0804C98.436 13.8552 98.3794 13.78 98.1921 13.78C98.0044 13.78 97.9478 13.8552 97.8916 14.0804L96.5397 19.6554H99.8436L98.4921 14.0804H98.4926Z" fill="white"/>
<path d="M115.574 25.6807H113.284C113.077 25.6807 113.002 25.4931 112.909 25.3055L110.206 20.2939H109.943C109.455 20.2939 108.704 20.2374 108.272 20.2186V25.3055C108.272 25.512 108.122 25.6807 107.916 25.6807H106.038C105.832 25.6807 105.663 25.512 105.663 25.3055V12.3907C105.663 12.0155 105.888 11.8839 106.264 11.8275C107.24 11.6775 108.573 11.5835 109.943 11.5835C112.834 11.5835 115.349 12.6159 115.349 15.8256V15.9944C115.349 17.984 114.354 19.2229 112.815 19.8237L115.762 25.3046C115.8 25.361 115.8 25.417 115.8 25.4546C115.8 25.5858 115.725 25.6798 115.575 25.6798L115.574 25.6807ZM112.758 15.8261C112.758 14.4184 111.819 13.8176 109.942 13.8176C109.548 13.8176 108.609 13.8552 108.272 13.8928V18.1161C108.572 18.1349 109.624 18.1726 109.942 18.1726C111.876 18.1726 112.758 17.6469 112.758 15.9953V15.8261Z" fill="white"/>
<path d="M122.106 25.8307C120.773 25.8307 118.971 25.6996 118.408 25.6055C118.089 25.5491 117.92 25.3991 117.92 25.0235V12.3907C117.92 12.0155 118.089 11.8651 118.408 11.8087C118.971 11.7146 120.773 11.5835 122.106 11.5835C125.86 11.5835 128 13.6107 128 17.3272V20.0865C128 23.803 125.86 25.8307 122.106 25.8307ZM125.41 17.3272C125.41 14.5115 123.983 13.7795 122.106 13.7795C121.412 13.7795 120.923 13.8171 120.529 13.8359V23.5783C120.923 23.597 121.411 23.6347 122.106 23.6347C123.983 23.6347 125.41 22.9026 125.41 20.0869V17.3272Z" fill="white"/>
<path d="M12.4663 22.4719C12.4663 22.6012 12.557 22.7615 12.6675 22.8283L17.2528 25.5932C17.3633 25.6599 17.5448 25.6599 17.6552 25.5932L22.2406 22.8283C22.3515 22.7615 22.4418 22.6012 22.4418 22.4719V21.8269C22.4418 21.6976 22.336 21.5918 22.2067 21.5918H19.856C19.7267 21.5918 19.5302 21.6463 19.4192 21.7126L17.6548 22.7723C17.5438 22.8391 17.3628 22.8391 17.2519 22.7723L15.4874 21.7126C15.3765 21.6459 15.2857 21.486 15.2857 21.3567V16.1386C15.2857 16.0093 15.3878 15.8749 15.5119 15.8396L17.227 15.3549C17.3516 15.3196 17.5551 15.3196 17.6792 15.3549L19.3938 15.8396C19.5184 15.8749 19.7258 15.9036 19.8551 15.9036H22.2058C22.3351 15.9036 22.4409 15.7977 22.4409 15.6685V14.1151C22.4409 13.9858 22.3393 13.8514 22.2147 13.8161L17.6792 12.5345C17.5546 12.4992 17.3511 12.4992 17.227 12.5345L12.6915 13.8161C12.5669 13.8514 12.4653 13.9858 12.4653 14.1151V22.4719H12.4663Z" fill="white"/>
<path d="M17.1325 30.7353C17.3098 30.842 17.5994 30.842 17.7767 30.7353L26.5865 25.4227C26.764 25.316 26.9087 25.0593 26.9087 24.8524V17.7288C26.9087 17.522 26.7394 17.3527 26.5327 17.3527H17.8307C17.6239 17.3527 17.4546 17.522 17.4546 17.7288V19.7975C17.4546 20.0043 17.6239 20.1736 17.8307 20.1736H23.7122C23.9191 20.1736 24.0883 20.3428 24.0883 20.5497V23.2596C24.0883 23.4665 23.9435 23.7231 23.7663 23.8298L17.7771 27.4415C17.5999 27.5482 17.3103 27.5482 17.133 27.4415L11.1434 23.8298C10.9661 23.7231 10.8214 23.4665 10.8214 23.2596V13.0109C10.8214 12.8041 10.984 12.5887 11.1833 12.5323L17.093 10.8628C17.2919 10.8064 17.6177 10.8064 17.8171 10.8628L23.7268 12.5323C23.9256 12.5887 24.0888 12.8041 24.0888 13.0109V15.5271C24.0888 15.734 24.2581 15.9032 24.4649 15.9032H26.5337C26.7403 15.9032 26.9097 15.734 26.9097 15.5271V10.9799C26.9097 10.773 26.7471 10.5577 26.5477 10.5018L17.8166 8.04195C17.6178 7.98602 17.2919 7.98602 17.0926 8.04195L8.36203 10.5018C8.16268 10.5577 8 10.773 8 10.9799V24.8529C8 25.0597 8.14482 25.3164 8.32206 25.4232L17.1321 30.7358L17.1325 30.7353Z" fill="white"/>
</g>
</svg>
