<?xml version="1.0" encoding="utf-8"?>
<!-- Generator: Adobe Illustrator 26.0.3, SVG Export Plug-In . SVG Version: 6.00 Build 0)  -->
<svg version="1.1" id="Layer_1" xmlns="http://www.w3.org/2000/svg" x="0px" y="0px"
	 viewBox="0 0 24 24" style="enable-background:new 0 0 24 24;" xml:space="preserve">
<style type="text/css">
	.st0{fill:none;}
	.st1{fill:#0D3EF2;}
</style>
	<rect class="st0" width="24" height="24"/>
	<path class="st1" d="M6.8,11.8c0.5-0.4,0.9-0.9,1.4-1.4c0.9,0.9,1.9,1.9,2.8,2.8c1.9-1.9,3.8-3.8,5.7-5.7c0.1,0.1,0.1,0.1,0.2,0.1
	C17.2,8,17.6,8.4,18,8.8c0.1,0.1,0.1,0.2,0,0.3c-2,2-3.9,3.9-5.9,5.9c-0.4,0.4-0.7,0.7-1.1,1.1C9.6,14.6,8.2,13.2,6.8,11.8z"/>
</svg>
