<svg width="19" height="22" viewBox="0 0 19 22" fill="none" xmlns="http://www.w3.org/2000/svg">
<path d="M2.67969 18.7422C4.98438 21.0859 8.73438 21.125 11.0781 18.7422L17.7969 11.8672C18.0312 11.6328 18.0312 11.2422 17.7578 11.0078L16.8594 10.1094C16.625 9.875 16.2344 9.875 16 10.1094L9.28125 16.9844C7.95312 18.3516 5.80469 18.3516 4.47656 16.9844C3.14844 15.6172 3.14844 13.3516 4.51562 11.9844L12.7188 3.58594C13.4609 2.84375 14.6719 2.84375 15.4141 3.58594C16.1562 4.36719 16.1562 5.65625 15.4141 6.4375L8.26562 13.7422C8.10938 13.8984 7.83594 13.8984 7.64062 13.7422C7.48438 13.5469 7.48438 13.1953 7.67969 13L13.3047 7.29688C13.5391 7.02344 13.5391 6.63281 13.2656 6.39844L12.4062 5.53906C12.1328 5.26562 11.7422 5.30469 11.5078 5.53906L5.88281 11.2812C4.75 12.4141 4.71094 14.2891 5.84375 15.4609C6.97656 16.6719 8.89062 16.6719 10.0625 15.5L17.2109 8.19531C18.9297 6.4375 18.8906 3.58594 17.2109 1.82812C15.4531 0.0703125 12.6406 0.0703125 10.9219 1.82812L2.71875 10.2266C0.414062 12.5703 0.375 16.3594 2.67969 18.7422Z" fill="white"/>
</svg>
